<?xml version="1.0" encoding="utf-8"?>
<!-- Generator: Adobe Illustrator 27.5.0, SVG Export Plug-In . SVG Version: 6.00 Build 0)  -->
<svg version="1.1" xmlns="http://www.w3.org/2000/svg" xmlns:xlink="http://www.w3.org/1999/xlink" x="0px" y="0px"
	 viewBox="0 0 500 500" style="enable-background:new 0 0 500 500;" xml:space="preserve">
<g id="BACKGROUND">
	<rect x="0.001" style="fill:#3CC3C7;" width="499.999" height="500"/>
</g>
<g id="OBJECTS">
	<g>
		<rect x="195" y="312" style="fill:#E6E0CA;" width="6" height="110"/>
		<rect x="194.876" y="312.16" style="fill:#AAAAAA;" width="6.301" height="26.464"/>
		<path style="fill:#AAAAAA;" d="M209.999,311.688c0,1.652-1.34,2.993-2.993,2.993h-17.958c-1.653,0-2.993-1.341-2.993-2.993v-0.315
			c0-1.652,1.34-2.992,2.993-2.992h17.958c1.653,0,2.993,1.34,2.993,2.992V311.688z"/>
		<path style="fill:#E1DDD9;" d="M218.82,303.339c0,3.48-2.821,6.301-6.301,6.301h-46.626c-3.48,0-6.301-2.82-6.301-6.301v-52.928
			c0-3.48,2.821-6.301,6.301-6.301h46.626c3.48,0,6.301,2.82,6.301,6.301V303.339z"/>
		<path style="fill:#E1DDD9;" d="M201.178,307.119h47.257c3.48,0,5.671,2.19,5.671,5.671v2.52c0,3.48-2.191,6.931-5.671,6.931
			h-46.627c-3.481,0-7.037-3.136-7.037-6.615c0,0,1.366-6.853-12.496-6.615v-1.892H201.178z"/>
		<path style="fill:none;stroke:#E6E0CA;stroke-width:5;stroke-miterlimit:10;" d="M185.5,431v-4.163
			c0-3.48,3.376-5.337,6.856-5.337h39.065c3.48,0,6.078,1.699,6.078,5.179V431"/>
		<path style="fill:none;stroke:#E6E0CA;stroke-width:5;stroke-miterlimit:10;" d="M164.5,431v-4.163
			c0-3.48,2.953-5.337,6.433-5.337h39.066c3.48,0,5.501,1.699,5.501,5.179V431"/>
		<path style="fill:#000009;" d="M172.193,435.658c0,3.48-2.821,6.301-6.301,6.301h-2.52c-3.48,0-6.301-2.82-6.301-6.301v-2.521
			c0-3.48,2.82-6.301,6.301-6.301h2.52c3.48,0,6.301,2.82,6.301,6.301V435.658z"/>
		<path style="fill:#000009;" d="M193.616,435.658c0,3.48-2.82,6.301-6.301,6.301h-2.521c-3.48,0-6.301-2.82-6.301-6.301v-2.521
			c0-3.48,2.821-6.301,6.301-6.301h2.521c3.48,0,6.301,2.82,6.301,6.301V435.658z"/>
		<path style="fill:#000009;" d="M223.861,435.658c0,3.48-2.821,6.301-6.301,6.301h-2.52c-3.48,0-6.301-2.82-6.301-6.301v-2.521
			c0-3.48,2.82-6.301,6.301-6.301h2.52c3.48,0,6.301,2.82,6.301,6.301V435.658z"/>
		<path style="fill:#000009;" d="M245.284,435.658c0,3.48-2.82,6.301-6.301,6.301h-2.52c-3.48,0-6.301-2.82-6.301-6.301v-2.521
			c0-3.48,2.821-6.301,6.301-6.301h2.52c3.48,0,6.301,2.82,6.301,6.301V435.658z"/>
	</g>
	<g>
		<path style="fill:#151515;" d="M257.406,196.515l-14.115-5.061c0,0,1.302,0.383,1.855,1.779l12.122,4.718L257.406,196.515z"/>
		<path style="fill:#E8A385;" d="M281.592,286.18c12.508,1.72,19.313,10.274,13.156,13.36c-6.135,3.077-8.331-3.571-8.331-3.571
			c-1.085-2.448-3.542-3.188-7.555-3.465L281.592,286.18z"/>
		<path style="fill:#E1DDD9;" d="M280.5,294.122c-17.252-0.909-34.58-9.656-47.428-21.155c-12.849-11.502-5.395-26.833-5.376-33.222
			c0.022-6.39-0.463-17.431,7.662-15.927c8.126,1.504,8.121,6.473,7.618,9.934c-0.366,2.517-1.556,6.235-3.878,9.646
			c-2.225,3.264,3.489,4.126,2.797,17.997c-0.219,4.355,4.117,7.515,4.899,8.168c4.9,4.086,24.506,15.194,36.596,16.664
			L280.5,294.122z"/>
		<path style="fill:#FAF8F0;" d="M183.904,293.022c-0.001-0.03-0.002-0.059-0.004-0.087c-0.33-5.681,1.518-12.38,5.233-20.831
			c9.055-20.608,4.093-45.21,13.13-49.256c7.588-3.398,20.496-1.359,20.496-1.359c25.591,2.717,17.5,12.406,15.285,17.55
			c-5.729,13.316-8.645,40.415-11.008,53.844c-0.005,0.043-0.014,0.085-0.021,0.127L183.904,293.022z"/>
		<path style="fill:#E8A385;" d="M217.555,195.248c1.003-7.583-7.065-10.262-9.094-2.786c-2.493,9.183,6.281,8.402,6.281,8.402
			c0.091,5.292,5.541,12.381,5.541,12.381l-3.518,6.345l-0.708,1.275l-0.146,0.266c0,0-3.005,5.538,2.731,8.229
			c5.506,2.581,7.519-3.687,7.519-3.687l1.382-3.515l0.465-1.181l1.243-3.16c8.773,4.118,13.892,1.106,17.784-4.634
			c2.436-3.59,3.969-9.478,5.118-17.443c1.523-10.559-2.774-18.905-11.29-20.13C224.511,173.253,218.901,189.999,217.555,195.248"/>
		<path style="fill:#E8A385;" d="M257.642,288.266c11.85,1.63,18.295,9.733,12.467,12.656c-5.815,2.914-7.897-3.383-7.897-3.383
			c-1.026-2.32-3.353-3.02-7.156-3.281L257.642,288.266z"/>
		<path style="fill:#262324;" d="M214.943,305.713c40.312-2.716,43.393,8.362,43.393,8.362c7.02,9.959-38.273,43.239-38.273,43.239
			l6.793,7.927c49.596-40.302,48.467-52.343,39.632-59.997c-10.191-8.834-40.524-9.202-40.524-9.202s-2.961,7.802-11.982,9.729
			L214.943,305.713z"/>
		<path style="fill:#262324;" d="M215.94,369.347c0.021,0.069,1.457-3.037,4.517-1.733c2.112,0.9,1.464,2.663,1.464,2.663
			c-0.004,0.003-0.004,0.006-0.005,0.011c-1.44,3.464,1.407,15.832,1.407,15.832c-0.838,4.257-3.415,3.445-4.29,2.555
			c-10.007-10.173-11.236-26.625-11.236-26.625l2.723-1.939c5.858-2.918,6.739,0.419,6.739,0.419S213.667,362.275,215.94,369.347z"
			/>
		<path style="fill:#E6C4A5;" d="M220.974,358.546c0,0-1.137,1.107-3.714,1.982c-2.581,0.876-2.852,6.548-1.319,8.818
			c0,0,4.991-3.976,5.981,0.93c0,0-0.328-4.203,3.762-6.603L220.974,358.546z"/>
		<path style="fill:#E1DDD9;" d="M207.797,362.049c0,0-1.669,0.629-2.31,1.354c0,0,1.475,21.716,13.062,27.084
			c2.866,1.326,5.616-0.272,4.766-4.36c0,0,0.08,2.608-3.579,1.506C218.746,387.335,211.376,384.108,207.797,362.049z"/>
		<path style="fill:#E9A487;" d="M227.716,219.057"/>
		<path style="fill:#E9A487;" d="M227.736,219.061"/>
		<path style="fill:#FAF8F0;" d="M198.161,421.404c0,0-1.216,1.303-1.471,2.237c0,0,10.928,18.825,23.693,18.513
			c3.158-0.076,4.917-2.729,2.348-6.019c0,0,1.222,2.306-2.545,2.934C219.167,439.239,211.126,439.607,198.161,421.404z"/>
		<path style="fill:#E6C4A5;" d="M208.432,412.436c0,0-0.532,1.495-2.456,3.419c-1.925,1.925,0.34,7.136,2.718,8.494
			c0,0,2.717-5.774,5.775-1.813c0,0-2.153-3.625,0.451-7.586L208.432,412.436z"/>
		<path style="fill:#3F3F3F;" d="M208.693,424.35c0.05,0.052-0.038-3.369,3.283-3.555c2.292-0.125,2.492,1.742,2.492,1.742
			c0,0.005,0,0.007,0,0.012c0.241,3.744,8.264,13.577,8.264,13.577c1.133,4.189-1.537,4.601-2.716,4.189
			c-13.476-4.699-21.855-18.91-21.855-18.91l1.587-2.941c3.964-5.209,6.228-2.607,6.228-2.607S203.526,419.014,208.693,424.35z"/>
		<path style="fill:#3F3F3F;" d="M183.904,293.028c0.502,8.13,5.486,14.176,15.869,20.299
			c17.664,10.412,40.991,21.952,28.308,49.582l-24.232,47.676l12.229,4.754l23.78-51.297c0,0,20.381-37.362-30.573-57.395
			c0,0,15.287,0,17.665-13.249c0.02-0.12,0.044-0.256,0.065-0.38"/>
		<path style="fill:#E1DDD9;" d="M212.316,292.103c0,0.532,0.431,0.963,0.965,0.963l0,0c0.529,0,0.961-0.431,0.961-0.963
			l9.035-62.455c0-0.531-0.431-0.961-0.961-0.961l0,0c-0.533,0-0.964,0.43-0.964,0.961L212.316,292.103z"/>
		<path style="fill:#FAF8F0;" d="M259.481,287.751c-32.767-1.213-47.233-20.358-47.233-20.358
			c0.304-12.408-7.527-20.411-6.674-24.849c0.933-4.85,3.034-11.225,3.034-11.225s3.034-8.799-6.372-9.71
			c-9.402-0.911-16.041,9.648-11.477,19.656c3.03,6.648-7.429,23.833,10.871,35.563c16.605,10.644,36.384,20.087,56.132,19.417
			L259.481,287.751z"/>
		<path style="fill:#7F7E7F;" d="M250.72,203.607c-3.25,1.634-9.688,0.261-9.688,0.261c-12.988-2.838-20.535-10.19-22.377-12.174
			l-3.914,9.171c0,0,0.038,5.524,5.541,12.381c0,0,5.688,3.307,8.968,4.571c0,0,3.372,1.819,7.168,1.904
			c3.378,0.075,6.526,0.449,11.226-7.52C249.616,208.857,250.72,203.607,250.72,203.607z"/>
		<g>
			<path style="fill:#1F1E1D;" d="M232.675,204.919l13.977,2.014c0,0-1.324,8.531-8.765,7.458
				C230.443,213.317,232.675,204.919,232.675,204.919z"/>
			<path style="fill:#CD7380;" d="M232.564,204.902c0,0-2.246,8.445,5.249,9.525c2.702,0.392,4.606-0.475,5.932-1.745
				C243.744,212.682,243.503,207.941,232.564,204.902z"/>
			<g>
				<path style="fill:#FFFFFF;" d="M232.328,207.853c-0.027-1.629,0.257-2.946,0.257-2.946l14.046,2.023
					c0,0-0.184,1.312-0.892,2.858L232.328,207.853z"/>
				<path style="fill:#FFFFFF;" d="M245.839,209.972l-13.68-1.972l-0.003-0.145c-0.023-1.628,0.25-2.932,0.261-2.986l0.033-0.152
					l14.374,2.071l-0.026,0.163c-0.005,0.055-0.197,1.354-0.904,2.904L245.839,209.972z M232.496,207.706l13.143,1.894
					c0.506-1.142,0.727-2.144,0.799-2.527l-13.719-1.979C232.654,205.473,232.49,206.498,232.496,207.706z"/>
			</g>
		</g>
		<path style="fill:#262324;" d="M237.042,198.17c-0.131,0.907-0.97,1.537-1.879,1.407l0,0c-0.902-0.131-1.535-0.975-1.403-1.879
			l0.315-2.189c0.129-0.906,0.974-1.534,1.877-1.403l0,0c0.907,0.131,1.534,0.972,1.405,1.876L237.042,198.17z"/>
		<path style="fill:#262324;" d="M249.125,199.913c-0.128,0.903-0.969,1.535-1.879,1.406l0,0c-0.903-0.13-1.531-0.974-1.4-1.878
			l0.313-2.189c0.134-0.906,0.974-1.535,1.877-1.405l0,0c0.911,0.131,1.535,0.972,1.409,1.877L249.125,199.913z"/>
		<path style="fill:#D9967D;" d="M220.283,213.246c0,0,4.695,2.891,8.968,4.571l-2.543,6.401c0,0-6.43-1.478-8.896-6.43
			L220.283,213.246z"/>
		<path style="fill:#262324;" d="M217.107,196h2.657c0,0,0.888-9.34,5.986-9.34c5.097,0,5.779-3.835,5.779-3.835
			s16.81,2.866,22.256,1.654c2.297-0.51,5.202-2.923,5.868-7.367c0,0-6.648,0.067-5.32,0.001
			c12.407-0.617,7.892-17.439,6.214-16.406c-14.717,9.047-27.874,4.29-40.649,6.031c-7.23,0.986-13.502,11.887-10.804,23.872
			C209.094,190.609,216.123,182,217.107,196z"/>
		<path style="fill:#262324;" d="M242.998,190.18c0.037,0.92-0.683,1.693-1.603,1.726l-9.107,0.667
			c-0.918,0.035-1.692-0.683-1.727-1.604l0,0c-0.034-0.919,0.686-1.692,1.605-1.726l9.103-0.667
			C242.19,188.543,242.965,189.26,242.998,190.18L242.998,190.18z"/>
		<path style="fill:#262324;" d="M244.271,192.649c-0.116,0.913,0.528,1.747,1.442,1.863l6.21,1.048
			c0.913,0.117,1.749-0.528,1.866-1.441l0,0c0.117-0.913-0.529-1.747-1.443-1.863l-6.211-1.049
			C245.222,191.092,244.386,191.736,244.271,192.649L244.271,192.649z"/>
		<path style="fill:#E1DDD9;" d="M216.05,220.88l8.833,11.585l-2.523,3.437l-12.41-14.836
			C209.95,221.066,213.483,220.748,216.05,220.88z"/>
		<path style="fill:#E1DDD9;" d="M227.592,222.145l-8.513,9.834l3.28,3.923l9.437-12.855
			C231.796,223.048,228.428,222.214,227.592,222.145z"/>
		<g>
			<path style="fill:#221A17;" d="M216.343,219.592c-0.076,0.002-7.591,0.118-8.516,7.572c-0.673,5.422-4.019,33.341-4.019,33.341
				l1.251,0.15c0,0,3.345-27.916,4.018-33.336c0.702-5.656,5.714-6.365,6.98-6.454l0.708-1.275L216.343,219.592z"/>
		</g>
		<path style="fill:#221A17;" d="M227.874,222.243c0.256,0.065,6.259,1.683,5.468,8.048l-1.953,15.74l1.251,0.155l1.953-15.74
			c0.926-7.454-6.332-9.406-6.406-9.424l-0.178-0.045l-0.465,1.181L227.874,222.243z"/>
		
			<path style="fill:none;stroke:#221A17;stroke-width:0.9336;stroke-linecap:round;stroke-linejoin:round;stroke-miterlimit:10;" d="
			M224.376,261.61c-1.756-1.863-2.698-4.459-2.358-7.194c0.605-4.877,5.048-8.339,9.924-7.732c4.879,0.604,8.339,5.047,7.735,9.923
			c-0.378,3.047-2.255,5.543-4.801,6.839"/>
		<path style="fill:#221A17;" d="M236.587,263.658c-0.108,0.868-0.901,1.483-1.771,1.375c-0.868-0.106-1.485-0.897-1.377-1.767
			c0.107-0.869,0.901-1.489,1.768-1.381C236.078,261.994,236.695,262.789,236.587,263.658z"/>
		<path style="fill:#221A17;" d="M226.172,262.365c-0.107,0.869-0.899,1.484-1.77,1.376c-0.869-0.108-1.488-0.898-1.378-1.767
			c0.107-0.87,0.9-1.489,1.77-1.381C225.661,260.7,226.281,261.495,226.172,262.365z"/>
		<polygon style="fill:#221A17;" points="232.403,242.993 235.899,247.482 227.915,246.49 		"/>
		<path style="fill:#FFFFFF;" d="M232.745,245.538c-0.044,0.357-0.371,0.616-0.731,0.571c-0.358-0.044-0.611-0.376-0.567-0.732
			c0.044-0.36,0.371-0.617,0.73-0.572C232.536,244.849,232.79,245.176,232.745,245.538z"/>
		<path style="fill:#221A17;" d="M207.942,261.949c-0.241,1.938-2.008,3.311-3.944,3.069c-1.937-0.239-3.315-2.003-3.074-3.94
			c0.241-1.939,2.009-3.314,3.944-3.074C206.805,258.245,208.184,260.01,207.942,261.949z"/>
		<path style="fill-rule:evenodd;clip-rule:evenodd;fill:#151515;" d="M256.043,199.309c-0.207-0.017-0.181-0.152-0.182-0.306
			c-0.016-1.646-0.843-2.756-2.463-3.073c-1.969-0.386-3.971-0.49-5.972-0.256c-0.904,0.105-1.673,0.488-2.17,1.321
			c-0.356,0.596-0.275,1.238-0.265,1.87c0.005,0.413,0.069,0.829,0.155,1.234c0.489,2.315,2.119,3.699,4.555,3.885
			c3.096,0.235,5.159-1.216,6.03-4.238c0.041-0.142,0.003-0.395,0.292-0.34c-0.45,2.568-2.345,4.678-5.184,4.829
			c-0.975,0.053-1.964,0.008-2.858-0.35c-1.268-0.509-2.232-1.391-2.775-2.713c-0.465-1.13-0.581-2.272-0.421-3.459
			c0.057-0.423-0.098-0.615-0.521-0.705c-1.149-0.247-2.309-0.349-3.481-0.361c-0.329-0.003-0.447,0.126-0.486,0.441
			c-0.123,1.024-0.39,2.012-0.892,2.92c-1.009,1.819-2.585,2.639-4.638,2.572c-0.936-0.032-1.844-0.216-2.701-0.609
			c-1.947-0.892-3.268-3.076-3.178-5.245c0.005-0.093-0.027-0.217,0.101-0.232c0.178-0.021,0.144,0.128,0.146,0.233
			c0.011,0.775,0.151,1.526,0.438,2.246c0.89,2.232,2.673,3.196,4.943,3.345c2.724,0.18,4.501-1.235,5.287-3.891
			c0.732-2.472-0.447-3.479-2.27-3.975c-1.688-0.46-3.408-0.783-5.159-0.821c-1.929-0.041-3.018,1.074-3.188,2.483
			c-0.034,0.269-0.175,0.261-0.361,0.224c-0.169-0.033-0.401,0.044-0.381-0.282c0.029-0.495-0.202-0.895-0.539-1.238
			c-0.381-0.388-0.071-0.819-0.057-1.222c0.01-0.296,0.343-0.201,0.538-0.23c2.631-0.415,5.26-0.477,7.878,0.098
			c1.623,0.356,3.2,0.874,4.487,1.949c0.426,0.356,0.817,0.353,1.274,0.444c1.325,0.264,2.531-0.01,3.805-0.422
			c2.629-0.85,5.307-0.63,7.972-0.002c0.77,0.181,1.529,0.412,2.296,0.6c0.517,0.126,1.029,0.376,1.532,0.601
			c0.055,0.025,0.11,0.037,0.137,0.113c0.105,0.3-0.185,1.151-0.465,1.343c-0.311,0.213-0.597,0.478-0.665,0.849
			C256.563,199.332,256.346,199.359,256.043,199.309z"/>
		<path style="fill:#151515;" d="M228.042,193.385l-14.114-5.061c0,0,1.302,0.383,1.855,1.779l12.122,4.718L228.042,193.385z"/>
		<path style="fill:none;" d="M201.207,190.719v7.387c0,2.177,1.771,3.947,3.947,3.947c0.168,0,0.328-0.028,0.49-0.049
			c-1.318-0.803-2.206-2.241-2.206-3.897v-7.387c0-1.657,0.888-3.094,2.206-3.897c-0.162-0.021-0.322-0.049-0.49-0.049
			C202.978,186.772,201.207,188.542,201.207,190.719z"/>
		<path style="fill:#151515;" d="M208.016,186.142c-0.125,0-0.242,0.027-0.364,0.037c1.606,0.887,2.709,2.578,2.709,4.54v7.387
			c0,1.962-1.104,3.653-2.709,4.54c0.122,0.01,0.239,0.037,0.364,0.037c2.528,0,4.577-2.049,4.577-4.577v-7.387
			C212.592,188.191,210.543,186.142,208.016,186.142z"/>
		<path style="fill:#151515;" d="M203.439,190.719v7.387c0,1.657,0.888,3.094,2.206,3.897c1.943-0.245,3.457-1.889,3.457-3.897
			v-7.387c0-2.009-1.513-3.653-3.457-3.897C204.327,187.625,203.439,189.062,203.439,190.719z"/>
		<path style="fill:none;stroke:#151515;stroke-miterlimit:10;" d="M253.554,184.273c0.307,1.675,0.468,3.409,0.468,5.186
			c0,0,1.115,22.886-10.277,21.257"/>
		<path style="fill:#151515;" d="M231.019,161.835c-13.727,0-24.894,12.392-24.894,27.624h2.741h1.039
			c0-11.196,6.878-20.589,16.107-23.138c1.608-0.443,3.278-0.705,5.006-0.705c1.926,0,3.785,0.318,5.56,0.867
			c2.559,0.02,5.15-0.042,7.783-0.326C240.502,163.425,235.926,161.835,231.019,161.835z"/>
		<path style="fill:#151515;" d="M245.886,210.686c0,1.009-0.818,1.829-1.828,1.829h-0.627c-1.01,0-1.828-0.82-1.828-1.829l0,0
			c0-1.009,0.818-1.829,1.828-1.829h0.627C245.068,208.857,245.886,209.677,245.886,210.686L245.886,210.686z"/>
		<path style="fill:#7F7E7F;" d="M210.361,198.106v-7.387c0-1.962-1.104-3.653-2.709-4.54c-0.732,0.059-1.413,0.281-2.007,0.643
			c1.943,0.245,3.457,1.889,3.457,3.897v7.387c0,2.009-1.513,3.653-3.457,3.897c0.594,0.362,1.276,0.585,2.007,0.643
			C209.258,201.759,210.361,200.068,210.361,198.106z"/>
		<path style="fill:#151515;" d="M207.037,197.02c0,1.783-1.445,3.23-3.229,3.23l0,0c-1.785,0-3.23-1.447-3.23-3.23v-5.214
			c0-1.783,1.445-3.23,3.23-3.23l0,0c1.784,0,3.229,1.447,3.229,3.23V197.02z"/>
	</g>
	<g>
		<path style="fill:#DCD9D8;" d="M375.713,280.727c0,3.788-3.072,6.86-6.859,6.86h-78.274c-3.788,0-6.859-3.072-6.859-6.86v-48.029
			c0-3.788,3.071-6.86,6.859-6.86h78.274c3.787,0,6.859,3.072,6.859,6.86V280.727z"/>
		<path style="fill:#EDF0EF;" d="M375.713,280.712c0,3.789-3.392,6.875-6.823,6.875h-70.804c-3.431,0-6.806-3.086-6.806-6.875
			v-48.015c0-3.789,3.375-6.86,6.806-6.86h70.804c3.432,0,6.823,3.071,6.823,6.86V280.712z"/>
		<path style="fill:#E1DDD9;" d="M327.826,258.603h19.151l4.572,27.987c0.915,6.345,4.001,6.037,4.001,6.037h2.52v6.301h-44.106
			v-5.04h9.691c0,0,4.171,1.4,4.171-5.973C327.826,280.541,327.826,258.603,327.826,258.603z"/>
		<rect x="93.432" y="298.928" style="fill:#C4954A;" width="315.045" height="8.821"/>
		<rect x="117.375" y="307.749" style="fill:#B08138;" width="36.545" height="6.302"/>
		<polygon style="fill:#B08138;" points="110.534,441.836 135.874,313.6 130.561,312.227 104.891,441.86 		"/>
		<polygon style="fill:#B08138;" points="162.112,441.836 136.771,313.6 142.085,312.227 167.91,441.729 		"/>
		<rect x="350.509" y="307.749" style="fill:#B08138;" width="36.546" height="6.302"/>
		<polygon style="fill:#B08138;" points="343.957,441.836 369.299,313.6 363.984,312.227 338.433,441.748 		"/>
		<polygon style="fill:#B08138;" points="395.536,441.836 370.195,313.6 375.509,312.227 401.337,441.854 		"/>
		<path style="fill:#EDF0EF;" d="M310.184,297.102c0,1.705-1.382,3.087-3.087,3.087h-66.917c-1.705,0-3.086-1.382-3.086-3.087
			v-0.128c0-1.704,1.382-3.086,3.086-3.086h66.917c1.705,0,3.087,1.382,3.087,3.086V297.102z"/>
	</g>
	<g>
		
			<line style="fill:none;stroke:#EDF0EF;stroke-width:3;stroke-linecap:square;stroke-linejoin:bevel;stroke-miterlimit:10;" x1="63.189" y1="442.158" x2="434.314" y2="442.158"/>
		<g>
			<g>
				<g>
					<path style="fill:#37627A;" d="M124.461,349.517h13.826c5.025,0,9.113,4.091,9.113,9.115v1.207
						c0,2.331-1.264,4.403-3.561,5.158c0,0-3.529,0.005-5.553,0.005v-4.503c1.013,0,4.598-0.012,4.598-0.012v-1.855
						c0-2.535-2.064-4.599-4.598-4.599h-13.826c-2.534,0-4.595,2.064-4.595,4.599v1.867c0,0,3.584,0,4.595,0v4.491
						c-2.021,0-5.55,0.007-5.55,0.007c-2.296-0.755-3.562-2.827-3.562-5.158v-1.207C115.35,353.607,119.438,349.517,124.461,349.517
						z"/>
					<path style="fill:#EDF0EF;" d="M123.941,348.349h14.869c5.404,0,9.8,4.396,9.8,9.802v1.3c0,2.504-1.359,4.735-3.829,5.547
						c0,0-3.795,0.005-5.971,0.005v-4.843c1.089,0,4.943-0.01,4.943-0.01v-1.999c0-2.727-2.217-4.944-4.943-4.944h-14.869
						c-2.726,0-4.945,2.218-4.945,4.944v2.009c0,0,3.856,0,4.945,0v4.829c-2.174,0-5.97,0.009-5.97,0.009
						c-2.471-0.812-3.83-3.043-3.83-5.547v-1.3C114.141,352.745,118.537,348.349,123.941,348.349z"/>
				</g>
				<path style="fill:#37627A;" d="M160.677,361.631c0-1.736-1.406-3.145-3.144-3.145h-52.78c-1.736,0-3.146,1.409-3.146,3.145v7.1
					c0,1.737,1.409,3.147,3.146,3.147h52.78c1.738,0,3.144-1.409,3.144-3.147V361.631z"/>
				<path style="fill:#407796;" d="M160.677,362.24c0-1.738-1.406-3.146-3.144-3.146h-52.78c-1.736,0-3.146,1.407-3.146,3.146v7.1
					c0,1.738,1.409,3.147,3.146,3.147h52.78c1.738,0,3.144-1.409,3.144-3.147V362.24z"/>
				<path style="fill:#EDF0EF;" d="M183.05,429.547c0.288,0,0.571,0.02,0.854,0.043v-56.14c-0.283,0.023-0.566,0.043-0.854,0.043
					c-5.651,0-10.234-4.583-10.234-10.234c0-0.43,0.035-0.848,0.085-1.263H89.386c0.05,0.415,0.086,0.833,0.086,1.263
					c0,5.651-4.584,10.234-10.236,10.234c-0.288,0-0.571-0.02-0.853-0.043v56.14c0.282-0.023,0.565-0.043,0.853-0.043
					c5.652,0,10.236,4.583,10.236,10.236c0,0.428-0.036,0.849-0.086,1.263h83.515c-0.05-0.414-0.085-0.835-0.085-1.263
					C172.816,434.13,177.399,429.547,183.05,429.547z"/>
				<rect x="98.03" y="361.996" style="fill:#4889B3;" width="7.154" height="79.05"/>
				<path style="fill:#407796;" d="M105.184,361.996v58.661c0,1.976-1.602,3.576-3.577,3.576l0,0c-1.976,0-3.577-1.601-3.577-3.576
					v-58.661H105.184z"/>
				<path style="fill:#4889B3;" d="M89.472,363.259c0-0.43-0.036-0.848-0.086-1.263H81.96c-1.977,0-3.578,1.602-3.578,3.575v7.879
					c0.282,0.023,0.565,0.043,0.853,0.043C84.888,373.493,89.472,368.91,89.472,363.259z"/>
				<path style="fill:#4889B3;" d="M183.05,373.493c0.288,0,0.571-0.02,0.854-0.043v-7.879c0-1.974-1.603-3.575-3.578-3.575h-7.426
					c-0.05,0.415-0.085,0.833-0.085,1.263C172.816,368.91,177.399,373.493,183.05,373.493z"/>
				<path style="fill:#4889B3;" d="M183.904,437.47v-7.88c-0.283-0.023-0.566-0.043-0.854-0.043
					c-5.651,0-10.234,4.583-10.234,10.236c0,0.428,0.035,0.849,0.085,1.263h7.426C182.302,441.046,183.904,439.445,183.904,437.47z"
					/>
				<path style="fill:#4889B3;" d="M79.235,429.547c-0.288,0-0.571,0.02-0.853,0.043v7.88c0,1.976,1.601,3.576,3.578,3.576h7.426
					c0.05-0.414,0.086-0.835,0.086-1.263C89.472,434.13,84.888,429.547,79.235,429.547z"/>
				<path style="fill:none;stroke:#37627A;stroke-width:4;stroke-linecap:round;stroke-linejoin:round;stroke-miterlimit:10;" d="
					M106.527,403.197c0,1.79-1.452,3.244-3.244,3.244H99.93c-1.791,0-3.244-1.454-3.244-3.244v-3.354
					c0-1.791,1.454-3.243,3.244-3.243h3.353c1.792,0,3.244,1.452,3.244,3.243V403.197z"/>
				<path style="fill:#37627A;" d="M102.949,399.282c0,0.741-0.601,1.342-1.342,1.342l0,0c-0.741,0-1.341-0.601-1.341-1.342v-5.365
					c0-0.741,0.601-1.342,1.341-1.342l0,0c0.741,0,1.342,0.601,1.342,1.342V399.282z"/>
				<path style="fill:#76A9DA;" d="M102.56,387.034c0,0.525-0.426,0.952-0.953,0.952c-0.528,0-0.955-0.427-0.955-0.952
					c0-0.528,0.427-0.955,0.955-0.955C102.134,386.079,102.56,386.506,102.56,387.034z"/>
				<path style="fill:#76A9DA;" d="M102.56,381.311c0,0.526-0.426,0.953-0.953,0.953c-0.528,0-0.955-0.427-0.955-0.953
					c0-0.527,0.427-0.954,0.955-0.954C102.134,380.357,102.56,380.784,102.56,381.311z"/>
				<path style="fill:#76A9DA;" d="M102.56,375.59c0,0.527-0.426,0.954-0.953,0.954c-0.528,0-0.955-0.427-0.955-0.954
					c0-0.527,0.427-0.953,0.955-0.953C102.134,374.637,102.56,375.063,102.56,375.59z"/>
				<rect x="157.1" y="361.996" style="fill:#4889B3;" width="7.155" height="79.05"/>
				<path style="fill:#407796;" d="M164.254,361.996v58.661c0,1.976-1.602,3.576-3.576,3.576l0,0c-1.977,0-3.579-1.601-3.579-3.576
					v-58.661H164.254z"/>
				<path style="fill:none;stroke:#37627A;stroke-width:4;stroke-linecap:round;stroke-linejoin:round;stroke-miterlimit:10;" d="
					M165.598,403.197c0,1.79-1.452,3.244-3.244,3.244h-3.355c-1.79,0-3.243-1.454-3.243-3.244v-3.354
					c0-1.791,1.452-3.243,3.243-3.243h3.355c1.792,0,3.244,1.452,3.244,3.243V403.197z"/>
				<path style="fill:#37627A;" d="M162.019,399.282c0,0.741-0.601,1.342-1.34,1.342l0,0c-0.742,0-1.343-0.601-1.343-1.342v-5.365
					c0-0.741,0.601-1.342,1.343-1.342l0,0c0.74,0,1.34,0.601,1.34,1.342V399.282z"/>
				<path style="fill:#76A9DA;" d="M161.631,387.034c0,0.525-0.426,0.952-0.953,0.952c-0.528,0-0.955-0.427-0.955-0.952
					c0-0.528,0.427-0.955,0.955-0.955C161.205,386.079,161.631,386.506,161.631,387.034z"/>
				<path style="fill:#76A9DA;" d="M161.631,381.311c0,0.526-0.426,0.953-0.953,0.953c-0.528,0-0.955-0.427-0.955-0.953
					c0-0.527,0.427-0.954,0.955-0.954C161.205,380.357,161.631,380.784,161.631,381.311z"/>
				<path style="fill:#76A9DA;" d="M161.631,375.59c0,0.527-0.426,0.954-0.953,0.954c-0.528,0-0.955-0.427-0.955-0.954
					c0-0.527,0.427-0.953,0.955-0.953C161.205,374.637,161.631,375.063,161.631,375.59z"/>
			</g>
			<polygon style="fill:#D43E00;" points="142.169,396.476 135.984,396.476 135.984,390.286 125.889,390.286 125.889,396.476 
				119.7,396.476 119.7,406.566 125.889,406.566 125.889,412.754 135.984,412.754 135.984,406.566 142.169,406.566 			"/>
		</g>
	</g>
	<g>
		<polygon style="fill:#FFFFFF;" points="358.436,180.51 335.566,219.746 312.693,180.51 		"/>
		<path style="fill:#FFFFFF;" d="M361.709,167.843c0,14.438-11.706,26.142-26.143,26.142c-14.439,0-26.143-11.704-26.143-26.142
			c0-14.437,11.703-26.142,26.143-26.142C350.003,141.701,361.709,153.406,361.709,167.843z"/>
		<g>
			<g>
				<path style="fill:#FFFFFF;" d="M327.472,131.381c0,2.235-1.813,4.049-4.048,4.049c-2.236,0-4.049-1.814-4.049-4.049
					c0-2.234,1.813-4.047,4.049-4.047C325.658,127.334,327.472,129.146,327.472,131.381z"/>
				<path style="fill:#FFFFFF;" d="M339.615,131.381c0,2.235-1.813,4.049-4.049,4.049c-2.236,0-4.049-1.814-4.049-4.049
					c0-2.234,1.813-4.047,4.049-4.047C337.803,127.334,339.615,129.146,339.615,131.381z"/>
				<path style="fill:#FFFFFF;" d="M351.758,131.381c0,2.235-1.813,4.049-4.047,4.049c-2.236,0-4.049-1.814-4.049-4.049
					c0-2.234,1.813-4.047,4.049-4.047C349.944,127.334,351.758,129.146,351.758,131.381z"/>
			</g>
		</g>
		<g>
			<path style="fill:#4889B3;" d="M355.769,167.843c0,11.157-9.046,20.202-20.202,20.202c-11.159,0-20.202-9.045-20.202-20.202
				c0-11.157,9.043-20.201,20.202-20.201C346.723,147.642,355.769,156.686,355.769,167.843z"/>
			<g>
				<defs>
					<path id="SVGID_1_" d="M355.769,167.843c0,11.157-9.046,20.202-20.202,20.202c-11.159,0-20.202-9.045-20.202-20.202
						c0-11.157,9.043-20.201,20.202-20.201C346.723,147.642,355.769,156.686,355.769,167.843z"/>
				</defs>
				<clipPath id="SVGID_00000122681338841328665810000005035292452833390266_">
					<use xlink:href="#SVGID_1_"  style="overflow:visible;"/>
				</clipPath>
				<g style="clip-path:url(#SVGID_00000122681338841328665810000005035292452833390266_);">
					<path style="fill:#DCD9D8;" d="M331.578,173.134c-1.357-1.841-4.541,0.74-4.541,0.74l-7.438,6.463l2.286,4.083
						C324.848,182.214,333.104,175.206,331.578,173.134z"/>
					<path style="fill:#DCD9D8;" d="M335.632,171.589c1.717-0.041,5.672,0.244,6.964,1.538c0,0-2.553,7.239-2.553,9.013
						c0,5.178,2.013,6.968,2.283,12.082c0,0-10.185,4.773-16.883,0.599c0,0,3.993-6.615,3.993-10.425
						c0-1.279-3.578-2.723-0.719-7.756c2.486-4.374,1.066-4.106,1.066-4.106S333.84,171.632,335.632,171.589z"/>
					<g>
						<path style="fill:#FFD78F;" d="M343.326,155.064c0.625,1.529,2.531,9.045-0.251,15.495c0,0-9.61,3.309-15.768-1.602
							c0,0-1.222-5.311,1.003-11.427c0.717-1.967,1.4-4.036,3.423-5.354c3.332-2.171,4.614,0.679,4.645,0.643
							C338.274,150.583,342.231,152.386,343.326,155.064z"/>
						<path style="fill:#E8BF7E;" d="M328.614,162.59c1.597-10.095,10.33-6.868,11.42-2.793c0.801,2.993,0.65,7.001,0.057,11.483
							c-3.201,0.564-8.364,0.841-12.314-1.972C327.98,167.313,328.122,165.693,328.614,162.59z"/>
						<path style="fill:#E8A385;" d="M329.465,159.263c-0.852,2.59-1.274,4.611-1.08,6.069c0.317,2.33,1.415,4.016,4.701,4.091
							l-0.246,2.853c0,0-0.236,2.06,1.724,2.253c2.051,0.204,2.072-2.085,2.072-2.085l-0.138-3.055c0,0,2.727-1.33,3.55-2.922
							c0,0,3.161,1.624,3.177-1.602c0.015-2.859-2.904-2.708-3.309-0.005c0,0,2.314-7.927-3.984-10.002
							C333.162,153.943,330.598,155.828,329.465,159.263z"/>
						<g>
							<path style="fill:#1F1E1D;" d="M333.995,164.991l-4.551-1.498c0,0-0.884,2.789,1.538,3.586
								C333.402,167.877,333.995,164.991,333.995,164.991z"/>
							<path style="fill:#CD7380;" d="M334.031,165.002c0,0-0.594,2.903-3.034,2.099c-0.881-0.289-1.326-0.838-1.537-1.425
								C329.46,165.676,330.249,164.274,334.031,165.002z"/>
							<g>
								<path style="fill:#FFFFFF;" d="M333.654,165.934c0.254-0.491,0.368-0.933,0.368-0.933l-4.571-1.507
									c0,0-0.142,0.427-0.158,1.001L333.654,165.934z"/>
								<path style="fill:#FFFFFF;" d="M329.233,164.493c0.018-0.576,0.159-0.999,0.165-1.018l0.018-0.054l4.674,1.542l-0.011,0.05
									c-0.007,0.019-0.117,0.457-0.373,0.946l-0.022,0.043l-4.45-1.466V164.493z M333.951,165.037l-4.46-1.47
									c-0.037,0.128-0.125,0.466-0.141,0.888l4.277,1.409C333.81,165.499,333.916,165.162,333.951,165.037z"/>
							</g>
						</g>
						
							<path style="fill:none;stroke:#262324;stroke-width:0.75;stroke-linecap:round;stroke-linejoin:round;stroke-miterlimit:10;" d="
							M334.68,162.861l0.276-0.841c0.114-0.348-0.077-0.725-0.422-0.839l0,0c-0.349-0.116-0.727,0.073-0.839,0.423l-0.28,0.84"/>
						
							<path style="fill:none;stroke:#262324;stroke-width:0.75;stroke-linecap:round;stroke-linejoin:round;stroke-miterlimit:10;" d="
							M330.822,161.339l0.235-0.712c0.096-0.296-0.064-0.612-0.358-0.71l0,0c-0.297-0.096-0.612,0.063-0.711,0.358l-0.235,0.712"/>
						<path style="fill:#FFD78F;" d="M339.695,162.622c0,0-3.389-0.31-3.741-4.594c0,0-0.082,2.322-3.196,2.033
							c0,0,0.839-1.98,0.75-2.683c-0.014-0.1-0.043,0-0.043,0s-1.216,1.955-3.491,1.765c0,0,0.091-1.413,0.791-3.732
							c0.695-2.309,3.97-2.931,6.776-1.824C343.742,156.03,339.695,162.622,339.695,162.622z"/>
					</g>
					<path style="fill:#D9967D;" d="M336.498,169.388c0,0-1.859,0.169-3.412,0.034l-0.194,2.328c0,0,2.174,0.521,3.673-0.61
						L336.498,169.388z"/>
					<path style="fill:#DCD9D8;" d="M340.306,172.652c1.991-1.122,3.834,2.539,3.834,2.539l4.784,9.919l-3.761,2.786
						C343.369,184.667,338.063,173.914,340.306,172.652z"/>
				</g>
			</g>
		</g>
	</g>
	<g>
		<g>
			<path style="fill:#FFFFFF;" d="M363.098,67.559c-8.489,4.928-19.369,2.041-24.298-6.45c-4.928-8.49-2.04-19.369,6.45-24.298
				c8.489-4.928,19.37-2.041,24.297,6.449C374.475,51.751,371.589,62.63,363.098,67.559z"/>
			<polygon style="fill:#FFFFFF;" points="354.588,69.907 331.679,69.96 343.088,50.093 			"/>
			<g>
				<path style="fill:#3CC3C7;" d="M348.962,52.185c0,1.514-1.227,2.743-2.742,2.743c-1.515,0-2.743-1.229-2.743-2.743
					c0-1.515,1.228-2.743,2.743-2.743C347.735,49.442,348.962,50.67,348.962,52.185z"/>
				<path style="fill:#3CC3C7;" d="M357.191,52.185c0,1.514-1.227,2.743-2.744,2.743c-1.514,0-2.743-1.229-2.743-2.743
					c0-1.515,1.229-2.743,2.743-2.743C355.964,49.442,357.191,50.67,357.191,52.185z"/>
				<path style="fill:#3CC3C7;" d="M365.421,52.185c0,1.514-1.23,2.743-2.744,2.743c-1.515,0-2.744-1.229-2.744-2.743
					c0-1.515,1.229-2.743,2.744-2.743C364.19,49.442,365.421,50.67,365.421,52.185z"/>
			</g>
		</g>
		<g>
			<text transform="matrix(1 0 0 1 133.0916 100.4277)" style="fill:#FFFFFF; font-family:'AnticSans'; font-size:40.757px;">Online Doctor </text>
		</g>
	</g>
</g>
<g id="DESIGNED_BY_FREEPIK">
	<g id="XMLID_1_">
		<g id="XMLID_100_">
			<path id="XMLID_121_" style="fill:#FFFFFF;" d="M180.087,474.181c-0.246,0-0.435,0.085-0.567,0.255
				c-0.133,0.17-0.199,0.422-0.199,0.754v2.392c-0.304-0.331-0.617-0.578-0.937-0.739c-0.321-0.159-0.715-0.239-1.182-0.239
				c-0.807,0-1.458,0.283-1.953,0.848c-0.494,0.566-0.742,1.356-0.742,2.369c0,0.479,0.063,0.924,0.188,1.335
				c0.124,0.412,0.307,0.77,0.549,1.074c0.241,0.305,0.526,0.54,0.857,0.704c0.33,0.164,0.689,0.246,1.078,0.246
				c0.293,0,0.563-0.04,0.809-0.122c0.247-0.081,0.477-0.2,0.689-0.356c0.212-0.156,0.427-0.359,0.644-0.608v0.161
				c0,0.296,0.072,0.524,0.217,0.685c0.145,0.161,0.328,0.241,0.549,0.241c0.226,0,0.409-0.078,0.552-0.231
				c0.143-0.154,0.213-0.386,0.213-0.694v-7.146c0-0.306-0.066-0.534-0.199-0.691C180.521,474.259,180.332,474.181,180.087,474.181z
				 M179.021,481.022c-0.141,0.306-0.329,0.533-0.564,0.682c-0.236,0.149-0.496,0.224-0.781,0.224c-0.281,0-0.54-0.079-0.778-0.236
				c-0.237-0.155-0.424-0.388-0.561-0.696c-0.136-0.309-0.205-0.683-0.205-1.122c0-0.415,0.064-0.78,0.193-1.095
				c0.128-0.315,0.31-0.556,0.543-0.724c0.233-0.168,0.499-0.253,0.795-0.253c0.285,0,0.547,0.082,0.787,0.246
				c0.239,0.165,0.429,0.402,0.569,0.712c0.141,0.312,0.21,0.683,0.21,1.113C179.232,480.331,179.163,480.714,179.021,481.022z"/>
			<path id="XMLID_118_" style="fill:#FFFFFF;" d="M187.452,480.102c0.233-0.122,0.35-0.385,0.35-0.793
				c0-0.439-0.113-0.871-0.338-1.294c-0.225-0.423-0.564-0.77-1.019-1.035c-0.453-0.268-0.996-0.4-1.628-0.4
				c-0.487,0-0.93,0.077-1.33,0.233c-0.4,0.157-0.737,0.381-1.009,0.674c-0.273,0.293-0.48,0.645-0.623,1.054
				c-0.143,0.409-0.214,0.854-0.214,1.332c0,1.017,0.289,1.822,0.867,2.416c0.577,0.593,1.387,0.891,2.427,0.891
				c0.456,0,0.858-0.06,1.207-0.179c0.352-0.119,0.641-0.269,0.874-0.448c0.231-0.18,0.404-0.367,0.519-0.563
				c0.115-0.196,0.172-0.367,0.172-0.514c0-0.166-0.052-0.294-0.155-0.386c-0.103-0.091-0.237-0.137-0.403-0.137
				c-0.154,0-0.273,0.035-0.356,0.107c-0.202,0.19-0.366,0.34-0.492,0.452c-0.126,0.11-0.265,0.215-0.415,0.312
				c-0.15,0.098-0.305,0.167-0.466,0.214c-0.16,0.045-0.337,0.067-0.531,0.067c-0.289,0-0.553-0.07-0.792-0.213
				c-0.239-0.143-0.432-0.353-0.576-0.636c-0.145-0.281-0.219-0.605-0.222-0.973h3.168
				C186.89,480.282,187.219,480.222,187.452,480.102z M183.297,479.362c0.056-0.546,0.212-0.959,0.472-1.238
				c0.259-0.279,0.59-0.418,0.994-0.418c0.423,0,0.764,0.138,1.024,0.412c0.259,0.275,0.409,0.689,0.448,1.244H183.297z"/>
			<path id="XMLID_117_" style="fill:#FFFFFF;" d="M192.878,479.664c-0.319-0.169-0.729-0.315-1.231-0.439
				c-0.424-0.103-0.756-0.189-0.997-0.261c-0.242-0.07-0.434-0.16-0.576-0.27c-0.143-0.108-0.213-0.248-0.213-0.419
				c0-0.186,0.097-0.341,0.291-0.465c0.194-0.126,0.437-0.188,0.73-0.188c0.286,0,0.511,0.047,0.677,0.143
				c0.166,0.095,0.31,0.222,0.433,0.38c0.151,0.189,0.284,0.332,0.401,0.427c0.116,0.095,0.258,0.143,0.424,0.143
				c0.23,0,0.408-0.06,0.532-0.179c0.124-0.119,0.186-0.272,0.186-0.457c0-0.171-0.058-0.345-0.175-0.523
				c-0.116-0.178-0.286-0.34-0.51-0.486c-0.223-0.146-0.502-0.264-0.837-0.35c-0.333-0.088-0.71-0.132-1.13-0.132
				c-0.535,0-0.99,0.086-1.367,0.259c-0.378,0.173-0.665,0.403-0.858,0.691c-0.194,0.289-0.291,0.596-0.291,0.92
				c0,0.363,0.105,0.671,0.315,0.92c0.21,0.249,0.489,0.45,0.84,0.602c0.35,0.153,0.804,0.299,1.362,0.437
				c0.494,0.119,0.849,0.244,1.065,0.374c0.216,0.132,0.323,0.338,0.323,0.623c0,0.187-0.104,0.351-0.311,0.496
				c-0.208,0.145-0.474,0.216-0.798,0.216c-0.4,0-0.715-0.07-0.947-0.213c-0.232-0.143-0.431-0.357-0.597-0.647
				c-0.082-0.149-0.169-0.267-0.261-0.35c-0.091-0.083-0.221-0.125-0.39-0.125c-0.194,0-0.355,0.064-0.481,0.19
				c-0.128,0.127-0.19,0.278-0.19,0.457c0,0.27,0.099,0.537,0.296,0.805c0.198,0.266,0.505,0.489,0.92,0.667
				c0.415,0.178,0.914,0.268,1.495,0.268c0.609,0,1.127-0.082,1.552-0.246c0.425-0.164,0.747-0.406,0.964-0.725
				c0.218-0.318,0.327-0.702,0.327-1.149c0-0.296-0.082-0.56-0.246-0.791C193.438,480.035,193.197,479.834,192.878,479.664z"/>
			<path id="XMLID_116_" style="fill:#FFFFFF;" d="M195.486,476.59c-0.238,0-0.431,0.081-0.579,0.244
				c-0.149,0.162-0.222,0.403-0.222,0.724v4.635c0,0.317,0.073,0.56,0.222,0.73c0.148,0.171,0.341,0.256,0.579,0.256
				c0.238,0,0.433-0.083,0.588-0.249c0.154-0.166,0.232-0.412,0.232-0.737v-4.682c0-0.289-0.078-0.515-0.232-0.677
				C195.919,476.671,195.724,476.59,195.486,476.59z"/>
			<path id="XMLID_115_" style="fill:#FFFFFF;" d="M195.504,474.252c-0.217,0-0.409,0.073-0.573,0.223
				c-0.165,0.148-0.246,0.337-0.246,0.566c0,0.254,0.08,0.45,0.24,0.588c0.16,0.139,0.353,0.208,0.579,0.208
				c0.217,0,0.405-0.07,0.564-0.211c0.158-0.141,0.238-0.335,0.238-0.585c0-0.257-0.081-0.452-0.244-0.587
				C195.9,474.318,195.714,474.252,195.504,474.252z"/>
			<path id="XMLID_112_" style="fill:#FFFFFF;" d="M202.626,476.59c-0.217,0-0.396,0.078-0.535,0.231
				c-0.139,0.155-0.208,0.372-0.208,0.653v0.22c-0.289-0.376-0.602-0.651-0.938-0.828c-0.336-0.176-0.734-0.264-1.193-0.264
				c-0.384,0-0.736,0.068-1.056,0.203c-0.321,0.138-0.604,0.341-0.849,0.609c-0.245,0.269-0.433,0.6-0.566,0.992
				c-0.133,0.391-0.199,0.83-0.199,1.317c0,0.652,0.108,1.227,0.327,1.727c0.217,0.499,0.529,0.886,0.934,1.163
				c0.406,0.277,0.88,0.416,1.422,0.416c0.45,0,0.84-0.091,1.166-0.273c0.327-0.182,0.615-0.447,0.864-0.796
				c-0.008,0.531-0.02,0.915-0.036,1.155c-0.016,0.239-0.07,0.464-0.164,0.673c-0.093,0.21-0.255,0.373-0.486,0.49
				c-0.231,0.117-0.557,0.175-0.977,0.175c-0.205,0-0.387-0.02-0.545-0.056c-0.159-0.038-0.294-0.096-0.406-0.172
				c-0.112-0.078-0.216-0.17-0.309-0.279c-0.093-0.108-0.183-0.218-0.27-0.324c-0.178-0.209-0.386-0.314-0.624-0.314
				c-0.189,0-0.352,0.063-0.486,0.188c-0.135,0.124-0.202,0.285-0.202,0.482c0,0.262,0.119,0.517,0.357,0.764
				c0.238,0.247,0.576,0.448,1.014,0.605c0.439,0.156,0.938,0.234,1.496,0.234c0.609,0,1.119-0.061,1.528-0.185
				c0.409-0.122,0.741-0.311,0.994-0.563c0.253-0.254,0.438-0.574,0.551-0.961c0.115-0.389,0.173-0.85,0.173-1.39v-4.706
				c0-0.384-0.051-0.678-0.155-0.882C203.146,476.692,202.938,476.59,202.626,476.59z M201.6,480.956
				c-0.151,0.29-0.346,0.508-0.586,0.652c-0.239,0.145-0.493,0.217-0.762,0.217c-0.455,0-0.826-0.168-1.113-0.505
				c-0.287-0.336-0.43-0.833-0.43-1.489c0-0.648,0.139-1.15,0.418-1.502c0.279-0.352,0.649-0.528,1.113-0.528
				c0.475,0,0.857,0.185,1.148,0.553c0.291,0.367,0.436,0.883,0.436,1.543C201.825,480.311,201.749,480.665,201.6,480.956z"/>
			<path id="XMLID_111_" style="fill:#FFFFFF;" d="M209.978,477.658c-0.165-0.34-0.417-0.603-0.753-0.789
				c-0.337-0.186-0.718-0.279-1.146-0.279c-0.44,0-0.828,0.088-1.166,0.265c-0.339,0.176-0.651,0.452-0.935,0.828v-0.196
				c0-0.193-0.034-0.358-0.104-0.493c-0.07-0.133-0.162-0.234-0.276-0.302c-0.115-0.067-0.244-0.102-0.387-0.102
				c-0.233,0-0.417,0.076-0.552,0.229c-0.134,0.152-0.201,0.383-0.201,0.692v4.682c0,0.317,0.076,0.56,0.226,0.73
				c0.15,0.171,0.342,0.256,0.576,0.256c0.241,0,0.438-0.082,0.59-0.246c0.152-0.164,0.228-0.411,0.228-0.74v-2.029
				c0-0.661,0.04-1.111,0.119-1.353c0.11-0.301,0.284-0.537,0.522-0.71c0.237-0.173,0.5-0.258,0.788-0.258
				c0.444,0,0.74,0.142,0.888,0.424c0.148,0.283,0.223,0.692,0.223,1.226v2.7c0,0.317,0.074,0.56,0.226,0.73
				c0.15,0.171,0.346,0.256,0.587,0.256c0.238,0,0.431-0.083,0.579-0.249c0.148-0.166,0.223-0.412,0.223-0.737v-3.015
				c0-0.356-0.017-0.648-0.048-0.878C210.155,478.07,210.085,477.856,209.978,477.658z"/>
			<path id="XMLID_108_" style="fill:#FFFFFF;" d="M216.821,480.102c0.233-0.122,0.35-0.385,0.35-0.793
				c0-0.439-0.113-0.871-0.338-1.294c-0.226-0.423-0.565-0.77-1.019-1.035c-0.453-0.268-0.996-0.4-1.628-0.4
				c-0.487,0-0.93,0.077-1.33,0.233c-0.399,0.157-0.736,0.381-1.009,0.674c-0.274,0.293-0.481,0.645-0.624,1.054
				c-0.142,0.409-0.213,0.854-0.213,1.332c0,1.017,0.289,1.822,0.866,2.416c0.578,0.593,1.387,0.891,2.428,0.891
				c0.455,0,0.858-0.06,1.208-0.179c0.351-0.119,0.64-0.269,0.872-0.448c0.232-0.18,0.405-0.367,0.52-0.563
				c0.115-0.196,0.172-0.367,0.172-0.514c0-0.166-0.051-0.294-0.154-0.386c-0.103-0.091-0.238-0.137-0.404-0.137
				c-0.154,0-0.273,0.035-0.357,0.107c-0.201,0.19-0.366,0.34-0.492,0.452c-0.128,0.11-0.266,0.215-0.415,0.312
				c-0.151,0.098-0.307,0.167-0.466,0.214c-0.161,0.045-0.338,0.067-0.532,0.067c-0.288,0-0.553-0.07-0.792-0.213
				c-0.239-0.143-0.431-0.353-0.576-0.636c-0.145-0.281-0.218-0.605-0.223-0.973h3.169
				C216.26,480.282,216.588,480.222,216.821,480.102z M212.666,479.362c0.056-0.546,0.212-0.959,0.471-1.238
				c0.259-0.279,0.591-0.418,0.995-0.418c0.424,0,0.765,0.138,1.024,0.412c0.259,0.275,0.409,0.689,0.448,1.244H212.666z"/>
			<path id="XMLID_105_" style="fill:#FFFFFF;" d="M223.206,474.181c-0.245,0-0.434,0.085-0.567,0.255
				c-0.132,0.17-0.199,0.422-0.199,0.754v2.392c-0.304-0.331-0.617-0.578-0.938-0.739c-0.32-0.159-0.714-0.239-1.181-0.239
				c-0.808,0-1.458,0.283-1.953,0.848c-0.495,0.566-0.741,1.356-0.741,2.369c0,0.479,0.062,0.924,0.187,1.335
				c0.124,0.412,0.308,0.77,0.549,1.074c0.241,0.305,0.527,0.54,0.857,0.704c0.33,0.164,0.689,0.246,1.077,0.246
				c0.293,0,0.563-0.04,0.811-0.122c0.247-0.081,0.476-0.2,0.688-0.356c0.211-0.156,0.426-0.359,0.644-0.608v0.161
				c0,0.296,0.072,0.524,0.217,0.685c0.145,0.161,0.328,0.241,0.549,0.241c0.226,0,0.41-0.078,0.552-0.231
				c0.143-0.154,0.213-0.386,0.213-0.694v-7.146c0-0.306-0.065-0.534-0.199-0.691C223.641,474.259,223.452,474.181,223.206,474.181z
				 M222.141,481.022c-0.14,0.306-0.328,0.533-0.564,0.682c-0.235,0.149-0.495,0.224-0.781,0.224c-0.281,0-0.54-0.079-0.776-0.236
				c-0.238-0.155-0.425-0.388-0.562-0.696c-0.137-0.309-0.205-0.683-0.205-1.122c0-0.415,0.064-0.78,0.193-1.095
				c0.129-0.315,0.31-0.556,0.543-0.724c0.233-0.168,0.5-0.253,0.795-0.253c0.285,0,0.547,0.082,0.787,0.246
				c0.239,0.165,0.43,0.402,0.57,0.712c0.141,0.312,0.21,0.683,0.21,1.113C222.352,480.331,222.282,480.714,222.141,481.022z"/>
			<path id="XMLID_102_" style="fill:#FFFFFF;" d="M232.586,476.984c-0.406-0.255-0.877-0.382-1.415-0.382
				c-0.467,0-0.859,0.084-1.175,0.252c-0.317,0.168-0.627,0.41-0.932,0.727v-2.475c0-0.297-0.068-0.524-0.202-0.686
				c-0.135-0.16-0.326-0.24-0.576-0.24c-0.237,0-0.423,0.084-0.555,0.252c-0.133,0.168-0.198,0.417-0.198,0.745v7.075
				c0,0.304,0.068,0.535,0.205,0.691c0.136,0.156,0.319,0.234,0.549,0.234c0.226,0,0.412-0.078,0.558-0.234
				c0.146-0.156,0.22-0.388,0.22-0.691v-0.161c0.178,0.205,0.322,0.361,0.43,0.463c0.109,0.104,0.241,0.204,0.395,0.3
				c0.154,0.098,0.341,0.176,0.561,0.234c0.22,0.06,0.454,0.09,0.704,0.09c0.407,0,0.781-0.082,1.119-0.246
				c0.338-0.164,0.626-0.397,0.864-0.698c0.237-0.301,0.418-0.656,0.543-1.065c0.124-0.41,0.187-0.858,0.187-1.35
				c0-0.665-0.112-1.24-0.336-1.725C233.305,477.61,232.991,477.24,232.586,476.984z M231.796,481.396
				c-0.295,0.354-0.646,0.531-1.053,0.531c-0.479,0-0.866-0.174-1.161-0.52c-0.295-0.346-0.442-0.841-0.442-1.486
				c0-0.439,0.069-0.818,0.208-1.137c0.139-0.318,0.328-0.561,0.57-0.729c0.24-0.168,0.516-0.253,0.825-0.253
				c0.3,0,0.564,0.085,0.79,0.253c0.225,0.168,0.399,0.406,0.521,0.715c0.123,0.309,0.184,0.677,0.184,1.104
				C232.238,480.533,232.09,481.041,231.796,481.396z"/>
			<path id="XMLID_101_" style="fill:#FFFFFF;" d="M239.53,476.689c-0.112-0.066-0.23-0.099-0.354-0.099
				c-0.171,0-0.302,0.03-0.395,0.09c-0.093,0.059-0.181,0.174-0.264,0.344c-0.083,0.17-0.176,0.406-0.278,0.706l-1.3,3.71
				l-1.372-3.989c-0.091-0.276-0.195-0.489-0.314-0.638c-0.119-0.147-0.295-0.223-0.528-0.223c-0.135,0-0.265,0.036-0.389,0.107
				c-0.124,0.071-0.222,0.166-0.294,0.285c-0.071,0.118-0.107,0.246-0.107,0.385c0,0.131,0.062,0.342,0.185,0.629l1.994,5.022
				l-0.148,0.362c-0.111,0.266-0.209,0.466-0.294,0.602c-0.085,0.138-0.181,0.233-0.288,0.288c-0.106,0.057-0.254,0.084-0.44,0.084
				c-0.074,0-0.163-0.012-0.266-0.035c-0.083-0.024-0.168-0.037-0.256-0.037c-0.221,0-0.388,0.052-0.5,0.152
				c-0.113,0.101-0.169,0.245-0.169,0.43c0,0.273,0.119,0.461,0.356,0.565c0.237,0.102,0.593,0.153,1.068,0.153
				c0.487,0,0.873-0.074,1.161-0.223c0.287-0.147,0.517-0.361,0.691-0.639c0.174-0.277,0.353-0.658,0.534-1.145l2.113-5.532
				c0.051-0.142,0.095-0.283,0.13-0.421c0.037-0.139,0.062-0.246,0.078-0.32c0-0.123-0.031-0.239-0.093-0.351
				C239.73,476.842,239.642,476.754,239.53,476.689z"/>
		</g>
		<g id="XMLID_63_">
			<g id="XMLID_79_">
				<path id="XMLID_99_" style="fill:#FFFFFF;" d="M261.93,474.176c-0.533,0-0.954,0.069-1.26,0.205
					c-0.308,0.137-0.527,0.354-0.654,0.652c-0.13,0.301-0.191,0.702-0.191,1.21v0.487h-0.387c-0.543,0-0.815,0.192-0.815,0.582
					c0,0.174,0.066,0.316,0.196,0.424c0.132,0.111,0.315,0.163,0.559,0.163h0.446v4.294c0,0.319,0.074,0.563,0.228,0.73
					c0.154,0.171,0.344,0.254,0.573,0.254c0.243,0,0.439-0.083,0.589-0.254c0.155-0.167,0.23-0.41,0.23-0.73v-4.294h0.395
					c0.291,0,0.517-0.035,0.681-0.107c0.166-0.07,0.245-0.24,0.245-0.502c0-0.374-0.307-0.56-0.926-0.56h-0.395v-0.386
					c0-0.322,0.043-0.568,0.122-0.74c0.087-0.171,0.273-0.259,0.565-0.259c0.107,0,0.241,0.014,0.39,0.033
					c0.155,0.026,0.268,0.038,0.33,0.038c0.134,0,0.252-0.054,0.348-0.159c0.101-0.107,0.15-0.236,0.15-0.385
					C263.35,474.406,262.879,474.176,261.93,474.176z"/>
				<path id="XMLID_98_" style="fill:#FFFFFF;" d="M267.089,476.842c-0.32-0.171-0.647-0.255-0.99-0.255
					c-0.342,0-0.61,0.084-0.818,0.255c-0.202,0.171-0.4,0.422-0.593,0.755c-0.014-0.333-0.08-0.584-0.198-0.755
					c-0.119-0.171-0.313-0.255-0.583-0.255c-0.525,0-0.788,0.364-0.788,1.093v4.514c0,0.323,0.078,0.568,0.226,0.733
					c0.149,0.169,0.34,0.25,0.579,0.25c0.236,0,0.432-0.08,0.586-0.246c0.15-0.163,0.233-0.41,0.233-0.737v-1.354
					c0-0.486,0.014-0.899,0.045-1.239c0.033-0.336,0.089-0.63,0.17-0.877c0.084-0.243,0.201-0.426,0.353-0.554
					c0.149-0.122,0.345-0.187,0.582-0.187c0.172,0,0.374,0.037,0.602,0.108c0.227,0.073,0.371,0.112,0.433,0.112
					c0.158,0,0.305-0.064,0.441-0.195c0.135-0.125,0.204-0.291,0.204-0.487C267.571,477.24,267.411,477.013,267.089,476.842z"/>
				<path id="XMLID_95_" style="fill:#FFFFFF;" d="M273.176,480.1c0.232-0.122,0.351-0.386,0.351-0.791
					c0-0.441-0.112-0.871-0.339-1.296c-0.222-0.424-0.565-0.77-1.018-1.034c-0.453-0.269-0.997-0.403-1.629-0.403
					c-0.488,0-0.931,0.078-1.329,0.233c-0.401,0.156-0.735,0.38-1.008,0.674c-0.276,0.295-0.484,0.644-0.624,1.055
					c-0.145,0.41-0.218,0.855-0.218,1.334c0,1.017,0.292,1.822,0.87,2.417c0.576,0.594,1.385,0.889,2.429,0.889
					c0.453,0,0.857-0.06,1.207-0.179c0.349-0.116,0.64-0.267,0.874-0.446c0.232-0.182,0.404-0.367,0.522-0.566
					c0.111-0.194,0.167-0.364,0.167-0.512c0-0.166-0.048-0.293-0.152-0.386c-0.104-0.092-0.237-0.139-0.405-0.139
					c-0.152,0-0.271,0.038-0.355,0.109c-0.202,0.189-0.367,0.34-0.493,0.449c-0.128,0.113-0.264,0.217-0.415,0.311
					c-0.15,0.098-0.308,0.17-0.466,0.214c-0.16,0.048-0.336,0.068-0.531,0.068c-0.29,0-0.552-0.069-0.792-0.212
					c-0.241-0.145-0.432-0.355-0.578-0.635c-0.145-0.281-0.216-0.607-0.222-0.974h3.171
					C272.615,480.281,272.942,480.221,273.176,480.1z M269.021,479.359c0.055-0.546,0.213-0.957,0.472-1.236
					c0.26-0.28,0.592-0.417,0.995-0.417c0.426,0,0.764,0.136,1.024,0.412c0.261,0.272,0.407,0.688,0.446,1.241H269.021z"/>
				<path id="XMLID_92_" style="fill:#FFFFFF;" d="M279.916,480.1c0.232-0.122,0.352-0.386,0.352-0.791
					c0-0.441-0.116-0.871-0.341-1.296c-0.223-0.424-0.564-0.77-1.013-1.034c-0.46-0.269-1.003-0.403-1.634-0.403
					c-0.486,0-0.932,0.078-1.33,0.233c-0.4,0.156-0.736,0.38-1.009,0.674c-0.273,0.295-0.48,0.644-0.622,1.055
					c-0.145,0.41-0.217,0.855-0.217,1.334c0,1.017,0.29,1.822,0.867,2.417c0.58,0.594,1.387,0.889,2.43,0.889
					c0.453,0,0.859-0.06,1.208-0.179c0.347-0.116,0.641-0.267,0.872-0.446c0.234-0.182,0.408-0.367,0.518-0.566
					c0.116-0.194,0.171-0.364,0.171-0.512c0-0.166-0.047-0.293-0.15-0.386c-0.104-0.092-0.238-0.139-0.406-0.139
					c-0.151,0-0.271,0.038-0.355,0.109c-0.202,0.189-0.367,0.34-0.492,0.449c-0.128,0.113-0.264,0.217-0.415,0.311
					c-0.152,0.098-0.307,0.17-0.469,0.214c-0.157,0.048-0.335,0.068-0.527,0.068c-0.291,0-0.556-0.069-0.795-0.212
					c-0.238-0.145-0.431-0.355-0.575-0.635c-0.144-0.281-0.218-0.607-0.222-0.974h3.17
					C279.354,480.281,279.682,480.221,279.916,480.1z M275.762,479.359c0.053-0.546,0.211-0.957,0.47-1.236
					c0.26-0.28,0.592-0.417,0.995-0.417c0.425,0,0.764,0.136,1.026,0.412c0.257,0.272,0.407,0.688,0.446,1.241H275.762z"/>
				<path id="XMLID_89_" style="fill:#FFFFFF;" d="M285.927,476.984c-0.42-0.257-0.883-0.386-1.38-0.386
					c-0.414,0-0.789,0.089-1.113,0.267c-0.331,0.177-0.648,0.452-0.952,0.827v-0.194c0-0.296-0.071-0.518-0.218-0.678
					c-0.144-0.155-0.329-0.233-0.561-0.233c-0.232,0-0.418,0.078-0.553,0.228c-0.133,0.155-0.2,0.382-0.2,0.692v6.994
					c0,0.354,0.052,0.62,0.146,0.807c0.102,0.184,0.301,0.274,0.606,0.274c0.518,0,0.778-0.358,0.778-1.068v-2.433
					c0.286,0.358,0.586,0.634,0.9,0.816c0.313,0.187,0.704,0.279,1.165,0.279c0.386,0,0.742-0.076,1.08-0.227
					c0.334-0.152,0.622-0.372,0.868-0.653c0.245-0.283,0.44-0.633,0.58-1.05c0.14-0.419,0.21-0.878,0.21-1.376
					c0-0.677-0.122-1.261-0.366-1.758C286.675,477.619,286.346,477.243,285.927,476.984z M285.45,480.987
					c-0.137,0.313-0.32,0.547-0.552,0.704c-0.23,0.154-0.48,0.232-0.748,0.232c-0.454,0-0.828-0.179-1.133-0.536
					c-0.307-0.358-0.459-0.862-0.459-1.504c0-0.686,0.154-1.204,0.461-1.558c0.307-0.35,0.685-0.527,1.131-0.527
					c0.281,0,0.54,0.084,0.77,0.248c0.229,0.163,0.411,0.397,0.542,0.705c0.13,0.306,0.196,0.673,0.196,1.1
					C285.658,480.296,285.588,480.674,285.45,480.987z"/>
				<path id="XMLID_88_" style="fill:#FFFFFF;" d="M288.9,476.587c-0.238,0-0.428,0.079-0.58,0.245
					c-0.145,0.162-0.222,0.402-0.222,0.721v4.642c0,0.314,0.076,0.556,0.222,0.729c0.152,0.171,0.342,0.254,0.58,0.254
					c0.237,0,0.432-0.081,0.588-0.25c0.154-0.165,0.231-0.41,0.231-0.732v-4.688c0-0.287-0.077-0.513-0.231-0.675
					C289.332,476.666,289.138,476.587,288.9,476.587z"/>
				<path id="XMLID_87_" style="fill:#FFFFFF;" d="M288.917,474.247c-0.217,0-0.407,0.076-0.571,0.223
					c-0.166,0.149-0.247,0.339-0.247,0.567c0,0.254,0.08,0.447,0.242,0.586c0.158,0.139,0.35,0.209,0.576,0.209
					c0.22,0,0.408-0.07,0.566-0.209c0.157-0.141,0.236-0.335,0.236-0.586c0-0.256-0.082-0.453-0.244-0.59
					C289.314,474.314,289.13,474.247,288.917,474.247z"/>
				<path id="XMLID_86_" style="fill:#FFFFFF;" d="M296.258,481.616l-1.662-2.613l0.86-0.789c0.438-0.396,0.659-0.714,0.659-0.95
					c0-0.192-0.068-0.354-0.2-0.483c-0.138-0.129-0.306-0.193-0.509-0.193c-0.169,0-0.313,0.044-0.432,0.13
					c-0.121,0.086-0.29,0.252-0.517,0.486l-1.822,1.914v-3.933c0-0.33-0.074-0.582-0.221-0.751
					c-0.147-0.172-0.344-0.258-0.593-0.258c-0.256,0-0.457,0.093-0.596,0.283c-0.136,0.189-0.207,0.463-0.207,0.821v6.913
					c0,0.323,0.073,0.568,0.215,0.733c0.141,0.169,0.339,0.25,0.588,0.25c0.213,0,0.405-0.083,0.566-0.254
					c0.164-0.167,0.247-0.406,0.247-0.718v-1.291l0.88-0.83l1.428,2.353c0.182,0.277,0.329,0.471,0.436,0.58
					c0.106,0.108,0.261,0.159,0.458,0.159c0.227,0,0.413-0.073,0.554-0.221c0.142-0.151,0.214-0.352,0.214-0.609
					c0-0.089-0.029-0.19-0.082-0.289C296.47,481.956,296.379,481.813,296.258,481.616z"/>
				<path id="XMLID_85_" style="fill:#FFFFFF;" d="M298.449,481.391c-0.25,0-0.458,0.086-0.629,0.261
					c-0.171,0.173-0.257,0.382-0.257,0.622c0,0.287,0.091,0.51,0.268,0.666c0.18,0.159,0.39,0.237,0.634,0.237
					c0.237,0,0.444-0.078,0.624-0.241c0.174-0.157,0.264-0.379,0.264-0.662c0-0.243-0.09-0.454-0.264-0.626
					C298.909,481.477,298.698,481.391,298.449,481.391z"/>
				<path id="XMLID_84_" style="fill:#FFFFFF;" d="M305.835,480.464c-0.166,0-0.308,0.054-0.422,0.155
					c-0.113,0.104-0.219,0.246-0.318,0.428c-0.177,0.31-0.381,0.538-0.616,0.689c-0.23,0.15-0.509,0.225-0.834,0.225
					c-0.24,0-0.463-0.045-0.666-0.142c-0.201-0.093-0.372-0.229-0.516-0.408c-0.144-0.18-0.252-0.398-0.325-0.652
					c-0.075-0.256-0.114-0.537-0.114-0.843c0-0.645,0.146-1.161,0.439-1.533c0.293-0.375,0.682-0.562,1.158-0.562
					c0.333,0,0.606,0.075,0.82,0.228c0.219,0.147,0.424,0.375,0.623,0.674c0.108,0.157,0.209,0.269,0.299,0.339
					c0.09,0.068,0.201,0.104,0.338,0.104c0.202,0,0.377-0.068,0.524-0.202c0.143-0.135,0.214-0.301,0.214-0.492
					s-0.062-0.397-0.192-0.617c-0.127-0.218-0.314-0.423-0.556-0.619c-0.245-0.192-0.54-0.353-0.891-0.475
					c-0.353-0.123-0.736-0.185-1.156-0.185c-0.674,0-1.26,0.139-1.747,0.419c-0.485,0.279-0.858,0.674-1.113,1.184
					c-0.259,0.511-0.387,1.098-0.387,1.765c0,0.981,0.281,1.764,0.841,2.349c0.563,0.583,1.345,0.876,2.349,0.876
					c0.469,0,0.894-0.065,1.269-0.191c0.377-0.126,0.688-0.295,0.935-0.502c0.248-0.208,0.434-0.425,0.553-0.656
					c0.122-0.229,0.183-0.446,0.183-0.647c0-0.169-0.067-0.33-0.199-0.48C306.198,480.541,306.033,480.464,305.835,480.464z"/>
				<path id="XMLID_81_" style="fill:#FFFFFF;" d="M312.646,477.5c-0.288-0.29-0.628-0.518-1.026-0.674
					c-0.4-0.161-0.847-0.239-1.336-0.239c-0.482,0-0.924,0.078-1.326,0.233c-0.398,0.158-0.737,0.381-1.02,0.669
					c-0.281,0.288-0.498,0.637-0.649,1.045c-0.146,0.408-0.224,0.858-0.224,1.35c0,0.485,0.076,0.929,0.22,1.331
					c0.151,0.401,0.368,0.75,0.656,1.048c0.285,0.292,0.627,0.521,1.017,0.677c0.393,0.159,0.835,0.239,1.326,0.239
					c0.492,0,0.937-0.08,1.336-0.234c0.394-0.158,0.735-0.383,1.02-0.676c0.286-0.291,0.501-0.641,0.656-1.049
					c0.146-0.408,0.222-0.855,0.222-1.336c0-0.489-0.075-0.932-0.221-1.339C313.148,478.144,312.934,477.797,312.646,477.5z
					 M311.455,481.416c-0.29,0.372-0.682,0.557-1.171,0.557c-0.324,0-0.604-0.086-0.846-0.252c-0.24-0.168-0.424-0.41-0.554-0.729
					c-0.13-0.317-0.193-0.685-0.193-1.108c0-0.429,0.066-0.804,0.197-1.125c0.131-0.321,0.314-0.563,0.556-0.727
					c0.242-0.164,0.521-0.246,0.84-0.246c0.489,0,0.881,0.183,1.171,0.555c0.289,0.367,0.436,0.881,0.436,1.543
					C311.891,480.534,311.744,481.047,311.455,481.416z"/>
				<path id="XMLID_80_" style="fill:#FFFFFF;" d="M322.569,476.86c-0.32-0.173-0.705-0.262-1.146-0.262
					c-0.381,0-0.726,0.081-1.038,0.241c-0.314,0.161-0.607,0.407-0.882,0.737c-0.191-0.325-0.431-0.572-0.725-0.735
					c-0.292-0.161-0.642-0.243-1.048-0.243c-0.395,0-0.748,0.079-1.07,0.241c-0.319,0.155-0.62,0.403-0.903,0.737v-0.153
					c0-0.261-0.073-0.466-0.222-0.615c-0.15-0.145-0.334-0.222-0.557-0.222c-0.226,0-0.412,0.078-0.556,0.239
					c-0.14,0.156-0.21,0.389-0.21,0.694v4.636c0,0.336,0.078,0.591,0.235,0.765c0.156,0.171,0.358,0.258,0.605,0.258
					c0.248,0,0.447-0.087,0.603-0.258c0.149-0.174,0.227-0.429,0.227-0.765v-2.189c0-0.684,0.086-1.206,0.253-1.566
					c0.169-0.369,0.517-0.551,1.048-0.551c0.264,0,0.459,0.072,0.582,0.22c0.121,0.142,0.197,0.331,0.226,0.552
					c0.027,0.227,0.04,0.544,0.04,0.953v2.581c0,0.341,0.078,0.594,0.232,0.767c0.148,0.171,0.35,0.256,0.595,0.256
					c0.254,0,0.454-0.085,0.61-0.256c0.156-0.173,0.23-0.426,0.23-0.767v-2.153c0-0.694,0.063-1.178,0.178-1.453
					c0.109-0.209,0.259-0.383,0.45-0.508c0.192-0.125,0.395-0.191,0.609-0.191c0.264,0,0.463,0.072,0.596,0.215
					c0.128,0.142,0.209,0.318,0.238,0.529c0.029,0.209,0.044,0.486,0.044,0.836v2.726c0,0.336,0.078,0.591,0.234,0.765
					c0.157,0.171,0.356,0.258,0.604,0.258c0.252,0,0.458-0.085,0.611-0.256c0.154-0.173,0.229-0.426,0.229-0.767v-3.164
					c0-0.629-0.068-1.09-0.206-1.385C323.128,477.284,322.889,477.034,322.569,476.86z"/>
			</g>
			<g id="XMLID_64_">
				<path id="XMLID_78_" style="fill:#FFFFFF;" d="M244.273,479.491c-0.001-0.004-0.001-0.006-0.001-0.011
					C244.272,479.485,244.272,479.487,244.273,479.491z"/>
				<path id="XMLID_77_" style="fill:#FFFFFF;" d="M244.355,480.009C244.356,480.009,244.356,480.009,244.355,480.009
					c-0.029-0.147-0.054-0.294-0.072-0.438C244.302,479.717,244.326,479.863,244.355,480.009z"/>
				<path id="XMLID_75_" style="fill:#FFFFFF;" d="M244.892,481.513c-0.004-0.006-0.007-0.013-0.011-0.021
					C244.885,481.5,244.888,481.507,244.892,481.513z"/>
				<path id="XMLID_74_" style="fill:#FFFFFF;" d="M244.84,481.413c-0.014-0.027-0.027-0.057-0.04-0.084
					C244.813,481.358,244.826,481.386,244.84,481.413z"/>
				<path id="XMLID_73_" style="fill:#FFFFFF;" d="M244.506,480.589c0.079,0.25,0.175,0.492,0.285,0.724
					c-0.112-0.236-0.206-0.479-0.283-0.724H244.506z"/>
				<path id="XMLID_72_" style="fill:#FFFFFF;" d="M249.736,472.728l-0.075-0.26c0.299-0.063,0.523-0.328,0.523-0.646
					c0-0.364-0.296-0.659-0.66-0.659c-0.365,0-0.662,0.295-0.662,0.659c0,0.317,0.226,0.583,0.524,0.646l0.084,0.29
					c-1.022,0.14-1.834,0.538-1.834,0.538l0.144,0.441c0.618-0.206,1.153-0.331,1.64-0.384c0.476-0.051,0.833-0.072,1.126-0.072
					c0.313,0,0.544,0.024,0.809,0.068l0.075-0.476C251.43,472.875,250.698,472.65,249.736,472.728z"/>
				<path id="XMLID_71_" style="fill:#FFFFFF;" d="M244.453,475.235c-0.017,0.023-0.497,0.465-0.876,1.279
					c-0.016-0.025-0.035-0.05-0.056-0.074c-0.114-0.124-0.273-0.188-0.474-0.184c-0.003,0-0.007,0-0.01,0
					c-0.124,0-0.21-0.041-0.266-0.092c0.056-0.071,0.089-0.161,0.089-0.259c0-0.23-0.188-0.418-0.419-0.418
					c-0.23,0-0.417,0.188-0.417,0.418c0,0.231,0.188,0.418,0.417,0.418c0.037,0,0.071-0.006,0.105-0.013
					c0.102,0.114,0.266,0.214,0.503,0.209c0.124-0.001,0.214,0.03,0.273,0.097c0.07,0.076,0.093,0.186,0.101,0.267
					c-0.001,0.002-0.001,0.004-0.002,0.004c-0.272,0.743-0.194,1.669-0.194,1.669l0.66,0.025c0.014-0.336,0.063-0.926,0.233-1.393
					c0.328-0.906,0.741-1.472,0.758-1.495l0.003-0.005c0.024-0.031,0.047-0.061,0.071-0.089l-0.196-0.143L244.453,475.235z"/>
				<path id="XMLID_70_" style="fill:#FFFFFF;" d="M256.294,473.834c-0.23,0-0.419,0.188-0.419,0.418
					c0,0.036,0.006,0.07,0.015,0.103c-0.114,0.104-0.214,0.267-0.21,0.507c0.002,0.123-0.03,0.212-0.097,0.272
					c-0.053,0.047-0.119,0.072-0.185,0.088c-0.492-0.689-1.098-1.109-1.098-1.109l-0.474,0.508c0.358,0.326,0.725,0.734,1.08,1.244
					c0.246,0.352,0.499,0.806,0.71,1.259l0.64-0.304c0,0-0.292-0.722-0.703-1.369c0.071-0.025,0.143-0.065,0.206-0.12
					c0.125-0.113,0.188-0.273,0.184-0.474c-0.001-0.13,0.041-0.218,0.093-0.276c0.071,0.055,0.16,0.089,0.258,0.089
					c0.232,0,0.418-0.188,0.418-0.418C256.712,474.022,256.525,473.834,256.294,473.834z"/>
				<path id="XMLID_69_" style="fill:#FFFFFF;" d="M254.633,479.585c-0.88,0.429-2.33,0.995-4.236,1.262
					c-0.75,0.103-1.476,0.142-2.143,0.142c-0.869,0-1.637-0.065-2.227-0.139c-0.672-0.085-1.197-0.189-1.52-0.261
					c0.077,0.244,0.171,0.487,0.283,0.724c0.002,0.006,0.005,0.013,0.009,0.017c0.013,0.027,0.026,0.057,0.04,0.084
					c0.014,0.027,0.027,0.054,0.041,0.079c0.004,0.008,0.007,0.015,0.011,0.021c0.189,0.356,0.417,0.685,0.675,0.968
					c0.9,0.984,1.816,1.14,1.825,1.142l0.015,0.002l0.013,0.005c0.009,0.003,0.822,0.265,2.057,0.265
					c1.215,0,2.408-0.245,3.545-0.729c0.842-0.431,1.639-1.085,2.033-1.669c0.305-0.451,0.526-0.934,0.656-1.434
					c0.069-0.266,0.124-0.692,0.092-1.14C255.555,479.089,255.163,479.326,254.633,479.585z"/>
				<path id="XMLID_65_" style="fill:#FFFFFF;" d="M251.322,473.702c-0.265-0.043-0.476-0.068-0.777-0.068
					c-0.279,0-0.626,0.023-1.088,0.071c-0.465,0.049-0.982,0.171-1.584,0.373c-0.842,0.281-1.603,0.724-2.203,1.279l-0.021,0.019
					c-0.089,0.081-0.274,0.254-0.488,0.525c-0.025,0.038-0.408,0.578-0.708,1.408c-0.227,0.622-0.217,1.526-0.217,1.537v0.002
					c0,0.212,0.013,0.423,0.036,0.632c0,0.005,0,0.007,0.001,0.011c0.002,0.026,0.007,0.053,0.01,0.079
					c0.019,0.145,0.043,0.291,0.074,0.438c0.438,0.111,3.047,0.721,5.966,0.314c1.828-0.255,3.217-0.796,4.06-1.204
					c0.701-0.34,1.151-0.647,1.325-0.774c-0.174-0.643-0.651-1.649-1.089-2.278C253.367,474.276,252.016,473.816,251.322,473.702z
					 M247.679,478.961c-0.971,0-1.76-0.787-1.76-1.759c0-0.972,0.789-1.761,1.76-1.761c0.972,0,1.761,0.789,1.761,1.761
					C249.44,478.174,248.651,478.961,247.679,478.961z M252.828,477.664c-0.601,0-1.088-0.488-1.088-1.09
					c0-0.602,0.487-1.089,1.088-1.089s1.09,0.487,1.09,1.089C253.918,477.176,253.429,477.664,252.828,477.664z"/>
			</g>
		</g>
	</g>
</g>
</svg>
